<svg width="37" height="37" viewBox="0 0 37 37" fill="none" xmlns="http://www.w3.org/2000/svg">
<path d="M30.6667 28.7396V15.6354C30.6667 15.3961 30.6109 15.16 30.5039 14.946C30.3969 14.7319 30.2415 14.5457 30.05 14.4021L19.2583 6.30833C18.9915 6.10819 18.6669 6 18.3333 6C17.9998 6 17.6752 6.10819 17.4083 6.30833L6.61667 14.4021C6.4252 14.5457 6.26979 14.7319 6.16276 14.946C6.05572 15.16 6 15.3961 6 15.6354V28.7396C6 29.1485 6.16243 29.5406 6.45154 29.8297C6.74066 30.1188 7.13279 30.2812 7.54167 30.2812H13.7083C14.1172 30.2812 14.5093 30.1188 14.7985 29.8297C15.0876 29.5406 15.25 29.1485 15.25 28.7396V24.1146C15.25 23.7057 15.4124 23.3136 15.7015 23.0245C15.9907 22.7353 16.3828 22.5729 16.7917 22.5729H19.875C20.2839 22.5729 20.676 22.7353 20.9651 23.0245C21.2542 23.3136 21.4167 23.7057 21.4167 24.1146V28.7396C21.4167 29.1485 21.5791 29.5406 21.8682 29.8297C22.1573 30.1188 22.5495 30.2812 22.9583 30.2812H29.125C29.5339 30.2812 29.926 30.1188 30.2151 29.8297C30.5042 29.5406 30.6667 29.1485 30.6667 28.7396Z" stroke="#2B3EA0" stroke-width="3" stroke-linecap="round" stroke-linejoin="round"/>
</svg>
