<svg width="50" height="49" viewBox="0 0 50 49" fill="none" xmlns="http://www.w3.org/2000/svg">
<path d="M44.0284 38.2773L32.9479 31.9528C37.0662 28.6143 38.1846 22.0532 38.1846 18.3746V10.7174C38.1846 5.64704 31.6465 0 25.0793 0C18.5139 0 11.8024 5.64794 11.8024 10.7174V18.3746C11.8024 21.7195 13.1759 28.4864 17.3365 31.9238L5.96988 38.2772C5.96988 38.2772 3 39.6409 3 41.341L0.5 45.9362C0.5 47.6272 4.33221 49 5.96988 49H44.0284C45.6677 49 48 48.5 49.5 48L47 41.341C47 39.5385 44.0284 38.2773 44.0284 38.2773Z" fill="#6E6B62"/>
</svg>
