<svg width="28" height="30" viewBox="0 0 28 30" fill="none" xmlns="http://www.w3.org/2000/svg">
<g filter="url(#filter0_d_2865_172)">
<rect width="28" height="28" rx="7" fill="#FAAE5B"/>
</g>
<path d="M7.39213 6.87044C7.01765 6.87019 6.64679 6.94302 6.30076 7.08477C5.95473 7.22652 5.64033 7.43441 5.37553 7.69654C5.11073 7.95868 4.90072 8.26992 4.75753 8.61246C4.61434 8.955 4.54076 9.32213 4.54102 9.69285C4.54102 11.8092 7.39213 14.9339 7.39213 14.9339C7.39213 14.9339 10.2433 11.8092 10.2433 9.69285C10.2435 9.32213 10.1699 8.955 10.0267 8.61246C9.88354 8.26992 9.67354 7.95868 9.40874 7.69654C9.14394 7.43441 8.82954 7.22652 8.48351 7.08477C8.13748 6.94302 7.76662 6.87019 7.39213 6.87044ZM7.39213 10.7003C7.19085 10.7003 6.99409 10.6412 6.82673 10.5305C6.65936 10.4198 6.52892 10.2625 6.45189 10.0784C6.37487 9.8943 6.35471 9.69173 6.39398 9.4963C6.43325 9.30087 6.53018 9.12136 6.67251 8.98046C6.81483 8.83957 6.99617 8.74361 7.19359 8.70474C7.39101 8.66587 7.59563 8.68582 7.7816 8.76207C7.96756 8.83832 8.1265 8.96745 8.23833 9.13313C8.35016 9.29881 8.40984 9.49359 8.40984 9.69285C8.40959 9.95996 8.30229 10.2161 8.11148 10.405C7.92068 10.5938 7.66197 10.7001 7.39213 10.7003ZM21.7607 13.3095V9.23413C21.7535 8.80622 21.6878 8.38123 21.5654 7.97078C21.2512 6.8859 20.556 5.94778 19.6049 5.32547C18.6539 4.70315 17.5096 4.43758 16.3782 4.5766C15.2468 4.71563 14.2028 5.25011 13.4344 6.08372C12.6659 6.91734 12.2234 7.99526 12.1868 9.12325V9.35829L12.1772 10.1828V19.6149H12.1734V19.6537C12.1734 20.1565 11.9716 20.6386 11.6125 20.9941C11.2534 21.3495 10.7664 21.5492 10.2586 21.5492C9.75074 21.5492 9.2637 21.3495 8.90461 20.9941C8.54552 20.6386 8.34378 20.1565 8.34378 19.6537L8.34761 19.6187H8.34378V17.7772H6.429V19.6727H6.43091C6.43155 20.6776 6.83543 21.6412 7.5537 22.3513C8.27197 23.0615 9.24581 23.4601 10.261 23.4594C11.2761 23.4588 12.2495 23.059 12.9668 22.348C13.6842 21.6369 14.0869 20.6729 14.0862 19.668H14.0881V18.7373H14.0929V11.1306L14.1025 9.35829V9.12419C14.1298 8.37808 14.4523 7.67251 15.0005 7.15976C15.5487 6.64701 16.2786 6.3682 17.0327 6.3835C17.7867 6.3988 18.5044 6.70699 19.0309 7.24155C19.5574 7.77611 19.8505 8.49418 19.8469 9.24077V13.2924C19.4802 13.4978 19.1923 13.8171 19.0277 14.201C18.8631 14.5848 18.831 15.0117 18.9364 15.4155C19.0418 15.8192 19.2789 16.1772 19.6108 16.434C19.9427 16.6908 20.3509 16.8321 20.7721 16.8358C21.1934 16.8396 21.6041 16.7056 21.9406 16.4548C22.2771 16.2039 22.5206 15.8502 22.6334 15.4484C22.7461 15.0466 22.7218 14.6192 22.5642 14.2325C22.4066 13.8458 22.1235 13.5213 21.7607 13.3095Z" fill="#252525"/>
<defs>
<filter id="filter0_d_2865_172" x="0" y="0" width="28" height="30" filterUnits="userSpaceOnUse" color-interpolation-filters="sRGB">
<feFlood flood-opacity="0" result="BackgroundImageFix"/>
<feColorMatrix in="SourceAlpha" type="matrix" values="0 0 0 0 0 0 0 0 0 0 0 0 0 0 0 0 0 0 127 0" result="hardAlpha"/>
<feOffset dy="2"/>
<feComposite in2="hardAlpha" operator="out"/>
<feColorMatrix type="matrix" values="0 0 0 0 0.639216 0 0 0 0 0.368627 0 0 0 0 0.188235 0 0 0 1 0"/>
<feBlend mode="normal" in2="BackgroundImageFix" result="effect1_dropShadow_2865_172"/>
<feBlend mode="normal" in="SourceGraphic" in2="effect1_dropShadow_2865_172" result="shape"/>
</filter>
</defs>
</svg>
