<svg width="37" height="37" viewBox="0 0 37 37" fill="none" xmlns="http://www.w3.org/2000/svg">
<path d="M18.4996 21.5273C18.799 21.5273 19.0917 21.4385 19.3406 21.2722C19.5895 21.1059 19.7835 20.8695 19.8981 20.5929C20.0126 20.3163 20.0426 20.012 19.9842 19.7184C19.9258 19.4247 19.7816 19.155 19.5699 18.9433C19.3583 18.7317 19.0886 18.5875 18.7949 18.5291C18.5013 18.4707 18.197 18.5007 17.9204 18.6152C17.6438 18.7298 17.4074 18.9238 17.2411 19.1727C17.0748 19.4216 16.986 19.7143 16.986 20.0136C16.986 20.4151 17.1455 20.8001 17.4293 21.084C17.7132 21.3678 18.0982 21.5273 18.4996 21.5273ZM26.0678 21.5273C26.3672 21.5273 26.6598 21.4385 26.9088 21.2722C27.1577 21.1059 27.3517 20.8695 27.4662 20.5929C27.5808 20.3163 27.6108 20.012 27.5524 19.7184C27.494 19.4247 27.3498 19.155 27.1381 18.9433C26.9264 18.7317 26.6567 18.5875 26.3631 18.5291C26.0695 18.4707 25.7652 18.5007 25.4886 18.6152C25.212 18.7298 24.9756 18.9238 24.8093 19.1727C24.643 19.4216 24.5542 19.7143 24.5542 20.0136C24.5542 20.4151 24.7137 20.8001 24.9975 21.084C25.2814 21.3678 25.6664 21.5273 26.0678 21.5273ZM18.4996 27.5818C18.799 27.5818 19.0917 27.4931 19.3406 27.3267C19.5895 27.1604 19.7835 26.924 19.8981 26.6474C20.0126 26.3709 20.0426 26.0665 19.9842 25.7729C19.9258 25.4793 19.7816 25.2096 19.5699 24.9979C19.3583 24.7862 19.0886 24.642 18.7949 24.5836C18.5013 24.5252 18.197 24.5552 17.9204 24.6698C17.6438 24.7843 17.4074 24.9783 17.2411 25.2273C17.0748 25.4762 16.986 25.7688 16.986 26.0682C16.986 26.4696 17.1455 26.8546 17.4293 27.1385C17.7132 27.4224 18.0982 27.5818 18.4996 27.5818ZM26.0678 27.5818C26.3672 27.5818 26.6598 27.4931 26.9088 27.3267C27.1577 27.1604 27.3517 26.924 27.4662 26.6474C27.5808 26.3709 27.6108 26.0665 27.5524 25.7729C27.494 25.4793 27.3498 25.2096 27.1381 24.9979C26.9264 24.7862 26.6567 24.642 26.3631 24.5836C26.0695 24.5252 25.7652 24.5552 25.4886 24.6698C25.212 24.7843 24.9756 24.9783 24.8093 25.2273C24.643 25.4762 24.5542 25.7688 24.5542 26.0682C24.5542 26.4696 24.7137 26.8546 24.9975 27.1385C25.2814 27.4224 25.6664 27.5818 26.0678 27.5818ZM10.9315 21.5273C11.2308 21.5273 11.5235 21.4385 11.7724 21.2722C12.0213 21.1059 12.2153 20.8695 12.3299 20.5929C12.4444 20.3163 12.4744 20.012 12.416 19.7184C12.3576 19.4247 12.2135 19.155 12.0018 18.9433C11.7901 18.7317 11.5204 18.5875 11.2268 18.5291C10.9331 18.4707 10.6288 18.5007 10.3522 18.6152C10.0756 18.7298 9.83924 18.9238 9.67292 19.1727C9.5066 19.4216 9.41783 19.7143 9.41783 20.0136C9.41783 20.4151 9.5773 20.8001 9.86116 21.084C10.145 21.3678 10.53 21.5273 10.9315 21.5273ZM29.0951 6.39092H27.5815V4.87728C27.5815 4.47584 27.422 4.09084 27.1381 3.80698C26.8543 3.52312 26.4693 3.36365 26.0678 3.36365C25.6664 3.36365 25.2814 3.52312 24.9975 3.80698C24.7137 4.09084 24.5542 4.47584 24.5542 4.87728V6.39092H12.4451V4.87728C12.4451 4.47584 12.2856 4.09084 12.0018 3.80698C11.7179 3.52312 11.3329 3.36365 10.9315 3.36365C10.53 3.36365 10.145 3.52312 9.86116 3.80698C9.5773 4.09084 9.41783 4.47584 9.41783 4.87728V6.39092H7.90419C6.69987 6.39092 5.54487 6.86934 4.69328 7.72092C3.8417 8.57251 3.36328 9.72751 3.36328 10.9318V29.0955C3.36328 30.2998 3.8417 31.4548 4.69328 32.3064C5.54487 33.158 6.69987 33.6364 7.90419 33.6364H29.0951C30.2994 33.6364 31.4544 33.158 32.306 32.3064C33.1576 31.4548 33.636 30.2998 33.636 29.0955V10.9318C33.636 9.72751 33.1576 8.57251 32.306 7.72092C31.4544 6.86934 30.2994 6.39092 29.0951 6.39092ZM30.6087 29.0955C30.6087 29.4969 30.4493 29.8819 30.1654 30.1658C29.8815 30.4496 29.4965 30.6091 29.0951 30.6091H7.90419C7.50275 30.6091 7.11775 30.4496 6.83389 30.1658C6.55003 29.8819 6.39055 29.4969 6.39055 29.0955V15.4727H30.6087V29.0955ZM30.6087 12.4455H6.39055V10.9318C6.39055 10.5304 6.55003 10.1454 6.83389 9.86153C7.11775 9.57767 7.50275 9.41819 7.90419 9.41819H29.0951C29.4965 9.41819 29.8815 9.57767 30.1654 9.86153C30.4493 10.1454 30.6087 10.5304 30.6087 10.9318V12.4455ZM10.9315 27.5818C11.2308 27.5818 11.5235 27.4931 11.7724 27.3267C12.0213 27.1604 12.2153 26.924 12.3299 26.6474C12.4444 26.3709 12.4744 26.0665 12.416 25.7729C12.3576 25.4793 12.2135 25.2096 12.0018 24.9979C11.7901 24.7862 11.5204 24.642 11.2268 24.5836C10.9331 24.5252 10.6288 24.5552 10.3522 24.6698C10.0756 24.7843 9.83924 24.9783 9.67292 25.2273C9.5066 25.4762 9.41783 25.7688 9.41783 26.0682C9.41783 26.4696 9.5773 26.8546 9.86116 27.1385C10.145 27.4224 10.53 27.5818 10.9315 27.5818Z" fill="#2B3EA0"/>
</svg>
