<svg width="24" height="24" viewBox="0 0 24 24" fill="none" xmlns="http://www.w3.org/2000/svg">
<path d="M4.7998 4.75H19.2002C19.7758 4.75011 20.2499 5.22417 20.25 5.7998V16.5996C20.25 17.1753 19.7759 17.6503 19.2002 17.6504H7.01465C6.60866 17.6504 6.21663 17.7909 5.90527 18.0459L5.77637 18.1621L4.17773 19.7607C4.02019 19.9183 3.75085 19.8068 3.75098 19.584L3.75879 5.80078V5.7998C3.75889 5.21927 4.22906 4.75011 4.7998 4.75Z" stroke="#2B3EA0" stroke-width="1.5"/>
<path d="M11 8.9V10.7C11 11.1971 11.4029 11.6 11.9 11.6C12.3971 11.6 12.8 11.1971 12.8 10.7V8.9C12.8 8.40294 12.3971 8 11.9 8C11.4029 8 11 8.40294 11 8.9Z" fill="#2B3EA0"/>
<path d="M13 14C13 13.4477 12.5523 13 12 13C11.4477 13 11 13.4477 11 14C11 14.5523 11.4477 15 12 15C12.5523 15 13 14.5523 13 14Z" fill="#2B3EA0"/>
</svg>
