<svg width="25" height="25" viewBox="0 0 25 25" fill="none" xmlns="http://www.w3.org/2000/svg">
<rect x="0.0390625" y="0.0400391" width="24" height="24" fill="#2B3EA0"/>
<g clip-path="url(#clip0_2915_67)">
<path d="M5.90039 5.9043H4.625V11.4002H5.90039V5.9043Z" fill="white"/>
<path d="M11.3943 4.62891H5.89844V5.90429H11.3943V4.62891Z" fill="white"/>
<path d="M10.1008 12.6826H8.15039H6.875V13.9562V19.4539H8.15039V13.9562H10.1008V19.4539H11.3762V13.9562V12.6826H10.1008Z" fill="white"/>
<path d="M5.90039 12.6826H4.625V19.4539H5.90039V12.6826Z" fill="white"/>
<path d="M12.6797 11.4002V4.62891H17.1773V7.04646L16.3069 8.01455L17.1773 8.98263V11.4002H12.6797ZM15.1896 7.32712L15.9055 6.5189V5.89897H13.9569V7.32712H15.1896ZM13.9569 8.69665V10.1284H15.9055V9.50487L15.1896 8.69665H13.9569Z" fill="white"/>
<path d="M18.1829 7.04646V4.62891H19.4547V7.04646L18.5843 8.01455L19.4547 8.98263V11.4002H18.1829V8.97908L17.3125 7.96836L18.1829 7.04824V7.04646Z" fill="white"/>
<path d="M19.4473 12.6826H18.1719V18.1785H19.4473V12.6826Z" fill="white"/>
<path d="M18.1756 18.1787H12.6797V19.4541H18.1756V18.1787Z" fill="white"/>
</g>
<defs>
<clipPath id="clip0_2915_67">
<rect width="14.8251" height="14.8251" fill="white" transform="translate(4.625 4.62793)"/>
</clipPath>
</defs>
</svg>
