<svg width="37" height="37" viewBox="0 0 37 37" fill="none" xmlns="http://www.w3.org/2000/svg">
<path d="M25.0866 4.20459C25.8645 4.20434 26.6137 4.49954 27.1841 5.031C27.7545 5.56246 28.1039 6.29091 28.1622 7.07032L28.1699 7.30268V15.0479H30.4824C31.0573 15.0479 31.6115 15.2631 32.0371 15.6514C32.4626 16.0398 32.7289 16.5735 32.7841 17.1484L32.7949 17.3715V28.9893C32.795 30.1746 32.3443 31.3152 31.5349 32.1776C30.7256 33.04 29.6189 33.5591 28.4413 33.6287L28.1699 33.6364H8.12826C7.35037 33.6367 6.60113 33.3415 6.03074 32.81C5.46036 32.2785 5.11097 31.5501 5.05263 30.7707L5.04492 30.5383V7.30268C5.04468 6.52107 5.33847 5.76825 5.8674 5.19513C6.39633 4.62201 7.12131 4.27096 7.89701 4.21234L8.12826 4.20459H25.0866ZM29.7116 18.146H28.1699V30.5383C28.5788 30.5383 28.9709 30.3751 29.26 30.0846C29.5492 29.7941 29.7116 29.4001 29.7116 28.9893V18.146ZM25.0866 7.30268H8.12826V30.5383H25.0866V7.30268ZM17.3783 19.695C17.7712 19.6955 18.1491 19.8466 18.4349 20.1177C18.7206 20.3887 18.8925 20.7591 18.9156 21.1533C18.9386 21.5474 18.811 21.9355 18.5588 22.2383C18.3066 22.5411 17.9488 22.7356 17.5586 22.7823L17.3783 22.7931H12.7533C12.3603 22.7927 11.9824 22.6415 11.6966 22.3705C11.4109 22.0994 11.239 21.729 11.2159 21.3348C11.1929 20.9407 11.3205 20.5526 11.5727 20.2498C11.8249 19.9471 12.1827 19.7525 12.5729 19.7059L12.7533 19.695H17.3783ZM20.4616 11.9498C20.8705 11.9498 21.2626 12.113 21.5517 12.4035C21.8408 12.694 22.0033 13.088 22.0033 13.4988C22.0033 13.9097 21.8408 14.3037 21.5517 14.5942C21.2626 14.8847 20.8705 15.0479 20.4616 15.0479H12.7533C12.3444 15.0479 11.9523 14.8847 11.6631 14.5942C11.374 14.3037 11.2116 13.9097 11.2116 13.4988C11.2116 13.088 11.374 12.694 11.6631 12.4035C11.9523 12.113 12.3444 11.9498 12.7533 11.9498H20.4616Z" fill="#2B3EA0"/>
</svg>
