<svg width="37" height="37" viewBox="0 0 37 37" fill="none" xmlns="http://www.w3.org/2000/svg">
<path d="M8.03353 7.99454C7.41421 7.99414 6.80088 8.11261 6.22862 8.34319C5.65636 8.57377 5.1364 8.91193 4.69847 9.33834C4.26055 9.76474 3.91324 10.271 3.67643 10.8282C3.43962 11.3854 3.31794 11.9826 3.31836 12.5856C3.31836 16.0282 8.03353 21.111 8.03353 21.111C8.03353 21.111 12.7487 16.0282 12.7487 12.5856C12.7491 11.9826 12.6274 11.3854 12.3906 10.8282C12.1538 10.271 11.8065 9.76474 11.3686 9.33834C10.9307 8.91193 10.4107 8.57377 9.83844 8.34319C9.26618 8.11261 8.65285 7.99414 8.03353 7.99454ZM8.03353 14.2244C7.70064 14.2244 7.37524 14.1283 7.09846 13.9482C6.82167 13.7682 6.60595 13.5122 6.47856 13.2128C6.35117 12.9133 6.31784 12.5838 6.38278 12.2659C6.44773 11.948 6.60802 11.656 6.84341 11.4268C7.07879 11.1976 7.37869 11.0416 7.70517 10.9783C8.03166 10.9151 8.37007 10.9475 8.67762 11.0716C8.98516 11.1956 9.24802 11.4057 9.43296 11.6752C9.6179 11.9447 9.71661 12.2615 9.71661 12.5856C9.71619 13.0201 9.53873 13.4367 9.22318 13.744C8.90764 14.0512 8.47978 14.224 8.03353 14.2244ZM31.7962 18.4686V11.8395C31.7843 11.1434 31.6757 10.4521 31.4732 9.78442C30.9537 8.0197 29.8039 6.4937 28.231 5.48141C26.6582 4.46912 24.7657 4.03713 22.8947 4.26327C21.0236 4.48941 19.2971 5.35883 18.0261 6.71483C16.7552 8.07084 16.0235 9.82425 15.9629 11.6591V12.0414L15.947 13.3827V28.7253H15.9407V28.7885C15.9407 29.6063 15.6071 30.3906 15.0132 30.9688C14.4193 31.547 13.6139 31.8719 12.774 31.8719C11.9342 31.8719 11.1287 31.547 10.5349 30.9688C9.94099 30.3906 9.60736 29.6063 9.60736 28.7885L9.61369 28.7315H9.60736V25.736H6.44069V28.8194H6.44386C6.44491 30.4541 7.11284 32.0214 8.30072 33.1766C9.4886 34.3317 11.0991 34.9801 12.778 34.9791C14.4569 34.9781 16.0665 34.3277 17.2529 33.1711C18.4393 32.0145 19.1052 30.4464 19.1042 28.8117H19.1074V27.2978H19.1153V14.9243L19.1311 12.0414V11.6606C19.1762 10.447 19.7097 9.29925 20.6163 8.46518C21.5229 7.63111 22.73 7.17758 23.977 7.20247C25.224 7.22736 26.411 7.72868 27.2817 8.59822C28.1524 9.46777 28.6371 10.6358 28.6311 11.8503V18.4409C28.0248 18.7749 27.5486 19.2944 27.2764 19.9188C27.0041 20.5432 26.9511 21.2376 27.1254 21.8943C27.2998 22.5511 27.6918 23.1335 28.2407 23.5512C28.7896 23.9689 29.4647 24.1986 30.1613 24.2047C30.8579 24.2108 31.5372 23.993 32.0937 23.585C32.6502 23.1769 33.0529 22.6015 33.2394 21.9479C33.4258 21.2943 33.3856 20.5991 33.125 19.9701C32.8644 19.341 32.3963 18.8132 31.7962 18.4686Z" fill="#2B3EA0"/>
</svg>
