<svg width="37" height="37" viewBox="0 0 37 37" fill="none" xmlns="http://www.w3.org/2000/svg">
<path fill-rule="evenodd" clip-rule="evenodd" d="M21.7518 4.65865C22.3429 4.24587 23.1736 4.05344 23.9899 4.34363C25.7254 4.96151 27.3373 5.86724 28.7539 7.02051C29.4201 7.56365 29.6645 8.35663 29.591 9.05805C29.4712 10.2266 29.6821 11.3547 30.262 12.3262C30.7732 13.1905 31.5432 13.8733 32.4826 14.3544L32.842 14.5251C33.5034 14.8153 34.0913 15.4189 34.2399 16.2523C34.5573 18.0183 34.5573 19.8245 34.2399 21.5905C34.1073 22.3416 33.6169 22.9049 33.0369 23.2215L32.842 23.3192C31.7397 23.8003 30.8387 24.5452 30.2604 25.5166C29.6821 26.4896 29.4712 27.6162 29.591 28.7847C29.6629 29.4861 29.4201 30.2807 28.7539 30.8223C27.3373 31.9755 25.7254 32.8813 23.9899 33.4991C23.619 33.628 23.2212 33.6667 22.8313 33.6118C22.4414 33.5569 22.0713 33.41 21.7533 33.1841C20.7693 32.4998 19.6558 32.1118 18.5007 32.1118C17.3457 32.1118 16.2322 32.4982 15.2497 33.1841C14.9315 33.4103 14.5611 33.5573 14.1709 33.6122C13.7807 33.6671 13.3827 33.6283 13.0115 33.4991C11.276 32.8813 9.66415 31.9755 8.24755 30.8223C7.94745 30.5748 7.71427 30.2597 7.56835 29.9045C7.42244 29.5494 7.36822 29.1649 7.41043 28.7847C7.53025 27.6162 7.31777 26.488 6.73945 25.5166C6.21371 24.6485 5.44316 23.9447 4.51884 23.4884L4.15939 23.3177C3.79881 23.1627 3.48285 22.9242 3.23915 22.6231C2.99546 22.322 2.83146 21.9674 2.76152 21.5905C2.44408 19.8245 2.44408 18.0183 2.76152 16.2523C2.89412 15.5012 3.38457 14.9379 3.96449 14.6213L4.15939 14.5251C5.26171 14.0425 6.16273 13.2992 6.74105 12.3262C7.31777 11.3547 7.53025 10.2266 7.41043 9.05805C7.36822 8.67785 7.42244 8.2934 7.56835 7.93824C7.71427 7.58308 7.94745 7.26801 8.24755 7.02051C9.66415 5.86724 11.276 4.96151 13.0115 4.34363C13.3824 4.21475 13.7802 4.17607 14.1701 4.23099C14.56 4.2859 14.9301 4.43273 15.2481 4.65865C16.2306 5.34455 17.3441 5.73096 18.5007 5.73096C19.6573 5.73096 20.7693 5.34455 21.7518 4.65865ZM23.2806 7.40381C21.8971 8.28835 20.266 8.83459 18.5007 8.83459C16.7354 8.83459 15.1043 8.2868 13.7208 7.40381C12.6087 7.84006 11.5654 8.42619 10.6215 9.14495C10.7174 10.748 10.3899 12.3929 9.50803 13.878C8.62458 15.3615 7.32256 16.4587 5.84482 17.1802C5.67669 18.3342 5.67669 19.5054 5.84482 20.6594C7.32256 21.381 8.62458 22.4781 9.50803 23.9648C10.3899 25.4468 10.7174 27.0917 10.6215 28.6947C11.5653 29.414 12.6086 30.0007 13.7208 30.4374C15.1043 29.5529 16.7354 29.0066 18.5007 29.0066C20.266 29.0066 21.8971 29.5544 23.2806 30.4374C24.3927 30.0012 25.436 29.415 26.3799 28.6963C26.284 27.0917 26.6115 25.4468 27.4934 23.9632C28.3752 22.4781 29.6789 21.381 31.1566 20.6579C31.3244 19.5049 31.3244 18.3348 31.1566 17.1818C29.6789 16.4587 28.3768 15.3615 27.4934 13.8764C26.6115 12.3929 26.284 10.748 26.3799 9.1434C25.436 8.42464 24.3927 7.84006 23.2806 7.40381ZM18.5007 12.7141C20.1955 12.7141 21.8209 13.3681 23.0193 14.5322C24.2177 15.6963 24.891 17.2751 24.891 18.9214C24.891 20.5677 24.2177 22.1465 23.0193 23.3106C21.8209 24.4747 20.1955 25.1286 18.5007 25.1286C16.8059 25.1286 15.1805 24.4747 13.9821 23.3106C12.7837 22.1465 12.1105 20.5677 12.1105 18.9214C12.1105 17.2751 12.7837 15.6963 13.9821 14.5322C15.1805 13.3681 16.8059 12.7141 18.5007 12.7141ZM18.5007 15.8178C17.6533 15.8178 16.8406 16.1447 16.2414 16.7268C15.6422 17.3088 15.3056 18.0983 15.3056 18.9214C15.3056 19.7445 15.6422 20.5339 16.2414 21.116C16.8406 21.698 17.6533 22.025 18.5007 22.025C19.3481 22.025 20.1608 21.698 20.76 21.116C21.3592 20.5339 21.6958 19.7445 21.6958 18.9214C21.6958 18.0983 21.3592 17.3088 20.76 16.7268C20.1608 16.1447 19.3481 15.8178 18.5007 15.8178Z" fill="#2B3EA0"/>
</svg>
