<svg width="24" height="24" viewBox="0 0 24 24" fill="none" xmlns="http://www.w3.org/2000/svg">
<path d="M12 21C16.9707 21 21 16.9707 21 12C21 7.0293 16.9707 3 12 3C7.0293 3 3 7.0293 3 12C3 16.9707 7.0293 21 12 21Z" stroke="#2B3EA0" stroke-width="1.5" stroke-linecap="round" stroke-linejoin="round"/>
<path d="M3 12H21" stroke="#2B3EA0" stroke-width="1.5" stroke-linecap="round" stroke-linejoin="round"/>
<path d="M12.0004 21C13.9885 21 15.6004 16.9707 15.6004 12C15.6004 7.0293 13.9885 3 12.0004 3C10.0123 3 8.40039 7.0293 8.40039 12C8.40039 16.9707 10.0123 21 12.0004 21Z" stroke="#2B3EA0" stroke-width="1.5" stroke-linecap="round" stroke-linejoin="round"/>
<path d="M5.63672 5.76392C6.47155 6.60084 7.46352 7.26457 8.55564 7.71695C9.64776 8.16934 10.8185 8.40147 12.0006 8.40002C13.1827 8.40147 14.3535 8.16934 15.4456 7.71695C16.5377 7.26457 17.5297 6.60084 18.3645 5.76392M18.3645 18.2361C17.5297 17.3992 16.5377 16.7355 15.4456 16.2831C14.3535 15.8307 13.1827 15.5986 12.0006 15.6C10.8185 15.5986 9.64776 15.8307 8.55564 16.2831C7.46352 16.7355 6.47155 17.3992 5.63672 18.2361" stroke="#2B3EA0" stroke-width="1.5" stroke-linecap="round" stroke-linejoin="round"/>
</svg>
