<svg width="24" height="24" viewBox="0 0 24 24" fill="none" xmlns="http://www.w3.org/2000/svg">
<path d="M6.85742 14.3057H16.1426C16.7049 14.3057 17.2424 14.5257 17.6367 14.9141C17.9815 15.2538 18.193 15.6978 18.2402 16.168L18.25 16.3701L18.249 16.4004C18.2477 16.4298 18.2443 16.4776 18.2383 16.541C18.2262 16.6685 18.2014 16.8581 18.1504 17.0879C18.0479 17.5493 17.8437 18.1612 17.4385 18.7695C16.657 19.9428 15.0312 21.25 11.5 21.25C7.96876 21.25 6.34304 19.9428 5.56152 18.7695C5.15631 18.1612 4.95212 17.5493 4.84961 17.0879C4.79859 16.8581 4.77385 16.6685 4.76172 16.541C4.75568 16.4776 4.75228 16.4298 4.75098 16.4004L4.75 16.3701C4.75007 15.8262 4.96939 15.3021 5.36328 14.9141C5.70827 14.5743 6.16259 14.3629 6.64746 14.3154L6.85742 14.3057ZM11.5 3.75C12.536 3.75 13.5276 4.15561 14.2568 4.87402C14.9856 5.59206 15.3926 6.56371 15.3926 7.57422L15.3877 7.7627C15.3403 8.70485 14.9402 9.60117 14.2568 10.2744C13.5276 10.9928 12.536 11.3984 11.5 11.3984L11.3066 11.3936C10.3413 11.3464 9.42688 10.948 8.74316 10.2744C8.01436 9.5564 7.60746 8.58473 7.60742 7.57422L7.6123 7.38477C7.65981 6.44291 8.06003 5.54709 8.74316 4.87402C9.47239 4.15561 10.464 3.75 11.5 3.75Z" stroke="#2B3EA0" stroke-width="1.5"/>
</svg>
